<svg class="logo-svg" data-name="Layer 1" xmlns="http://www.w3.org/2000/svg" viewBox="0 0 437.09 74.2">
                  <title>ash-erie-svg</title>
                  <path class="main-logo" d="M20.3,1.4H34.9L53.7,72.8H41.8L37.4,55.3H16.5L11.9,72.8H0ZM35.5,46.2,27.3,11h-.2L18.6,46.2Z"></path>
                  <path class="main-logo" d="M70.5,50.7v1.8c0,8.7,3.9,13.1,11.7,13.1,7.1,0,10.8-5.2,10.8-10.4,0-7.5-3.8-10.8-10.2-12.7L75,39.8c-10.4-4-14.9-9.4-14.9-19.6C60.1,7.2,69,0,82.3,0c18.3,0,20.2,11.4,20.2,18.8v1.6H91.1V18.9c0-6.5-2.8-10.3-10-10.3-4.9,0-9.6,2.7-9.6,10.3,0,6.1,3.1,9.2,10.7,12.1l7.7,2.8c10.1,3.6,14.5,9,14.5,18.9,0,15.2-9.2,21.5-23.6,21.5-17.7,0-21.7-11.8-21.7-21.8V50.7Z"></path>
                  <path class="main-logo" d="M113.6,1.4H125V30h21V1.4h11.4V72.8H146V39.6H125V72.8H113.6Z"></path>
                  <path class="main-logo" d="M178.82,54.3a19.19,19.19,0,0,1,3.39-11.23q3.39-4.88,12.18-9.86a58.54,58.54,0,0,1-5.64-7,24,24,0,0,1-2.37-5,16.59,16.59,0,0,1-.88-5.37q0-7.32,4.79-11.43T203.62.29q7.91,0,12.45,4.08t4.54,11.35a15.71,15.71,0,0,1-3.32,9.64q-3.32,4.42-11,9l19.87,19.09a23.59,23.59,0,0,0,4.37-7.1,61,61,0,0,0,2.76-8.91h8.2q-3.32,14-10,21.19L246.1,72.8H234.92l-9-8.69a34.66,34.66,0,0,1-25,9.67q-10.5,0-16.28-5.18T178.82,54.3Zm22.27,12.21q11.77,0,19.53-7.52l-21.34-20.7a47.26,47.26,0,0,0-7.67,5.49,14.51,14.51,0,0,0-3.32,4.66,14.18,14.18,0,0,0-1.07,5.66A11.48,11.48,0,0,0,191,63.16Q194.78,66.51,201.08,66.51Zm-7.57-50.88A12.67,12.67,0,0,0,195.27,22a38.92,38.92,0,0,0,6,7.35q6.3-3.66,8.76-6.76a11.17,11.17,0,0,0,2.47-7.15A8,8,0,0,0,210,9.35,9.39,9.39,0,0,0,203.28,7a10.4,10.4,0,0,0-7.06,2.34A7.91,7.91,0,0,0,193.51,15.63Z"></path>
                  <path class="main-logo" d="M264.7,1.4h38.6V11H276.1V30.8h25.6v9.6H276.1V63.2h28v9.6H264.7Z"></path>
                  <path class="main-logo" d="M315.79,1.4H341c10,0,18.1,5.1,18.1,18.4,0,9.2-4,16.3-11.9,17.5v.2c7.2.7,10.8,4.6,11.2,14.6.1,4.7.1,10.2.4,14.5a7.79,7.79,0,0,0,3.4,6.2H349.3c-1.1-1.3-1.6-3.5-1.9-6.3-.2-2.1-.3-4.3-.3-6.4s-.1-4.5-.2-7.1c-.3-7.8-2.7-11.2-10.4-11.2h-9.3v31h-11.4Zm20.5,31.8c7.3,0,11.4-4.4,11.4-11.6,0-7.6-3.2-11.6-10.8-11.6h-9.7V33.2Z"></path>
                  <path class="main-logo" d="M372,1.4h11.4V72.8H372Z"></path>
                  <path class="main-logo" d="M397.69,1.4h38.6V11h-27.2V30.8h25.6v9.6h-25.6V63.2h28v9.6h-39.4Z"></path>
                </svg>